<svg xmlns="http://www.w3.org/2000/svg" xmlns:xlink="http://www.w3.org/1999/xlink" width="500" zoomAndPan="magnify" viewBox="0 0 375 374.999991" height="500" preserveAspectRatio="xMidYMid meet" version="1.0"><defs><filter x="0%" y="0%" width="100%" height="100%" id="a42f8b669b"><feColorMatrix values="0 0 0 0 1 0 0 0 0 1 0 0 0 0 1 0 0 0 1 0" color-interpolation-filters="sRGB"/></filter><g/><clipPath id="b43e3ed152"><path d="M 29 31 L 346.003906 31 L 346.003906 344.273438 L 29 344.273438 Z M 29 31 " clip-rule="nonzero"/></clipPath><mask id="9baf323a2b"><g filter="url(#a42f8b669b)"><rect x="-37.5" width="450" fill="#000000" y="-37.499999" height="449.999989" fill-opacity="0.8"/></g></mask><clipPath id="941290779e"><path d="M 80 291 L 150 291 L 150 313.273438 L 80 313.273438 Z M 80 291 " clip-rule="nonzero"/></clipPath><clipPath id="83ffc0340b"><rect x="0" width="318" y="0" height="314"/></clipPath></defs><rect x="-37.5" width="450" fill="#ffffff" y="-37.499999" height="449.999989" fill-opacity="1"/><rect x="-37.5" width="450" fill="#ffffff" y="-37.499999" height="449.999989" fill-opacity="1"/><rect x="-37.5" width="450" fill="#3848f1" y="-37.499999" height="449.999989" fill-opacity="1"/><g clip-path="url(#b43e3ed152)"><g mask="url(#9baf323a2b)"><g transform="matrix(1, 0, 0, 1, 29, 31)"><g clip-path="url(#83ffc0340b)"><path fill="#ffffff" d="M 292.429688 123.367188 C 286.628906 106.078125 277.609375 89.953125 265.878906 76.148438 C 254.148438 62.214844 239.710938 50.601562 223.46875 42.21875 C 207.230469 33.703125 189.183594 28.542969 170.621094 27.125 C 152.0625 25.703125 133.113281 27.898438 115.324219 34.21875 C 115.324219 34.347656 115.324219 34.476562 115.066406 34.734375 C 114.550781 35.25 113.519531 35.894531 112.230469 36.410156 C 110.941406 37.058594 109.523438 37.574219 108.105469 38.089844 C 100.246094 40.925781 92.640625 44.667969 85.292969 48.925781 C 72.144531 57.570312 60.800781 68.664062 51.519531 81.179688 C 53.324219 78.597656 55.386719 76.277344 57.320312 73.824219 C 59.382812 71.503906 61.445312 69.179688 63.636719 66.988281 C 67.890625 62.472656 72.660156 58.472656 77.558594 54.859375 C 78.976562 53.699219 80.394531 52.796875 81.425781 52.28125 C 82.457031 51.765625 83.101562 51.636719 83.230469 52.023438 C 83.230469 52.410156 82.714844 53.054688 81.683594 54.085938 C 80.78125 55.117188 79.363281 56.28125 77.945312 57.441406 C 65.054688 67.632812 53.582031 81.179688 45.203125 95.886719 C 36.699219 110.59375 31.285156 126.460938 27.804688 140.910156 C 25.355469 159.746094 27.160156 178.96875 32.703125 196.644531 C 38.246094 214.320312 47.652344 230.574219 59.640625 243.863281 C 71.628906 257.152344 86.324219 267.730469 102.046875 274.699219 C 117.773438 281.664062 134.660156 285.148438 151.03125 285.277344 C 152.320312 285.277344 153.867188 285.40625 154.511719 285.664062 C 155.414062 285.921875 155.15625 286.179688 153.996094 286.179688 C 136.851562 286.953125 118.675781 283.988281 101.273438 276.632812 C 92.640625 272.890625 84.132812 268.246094 76.269531 262.441406 C 68.40625 256.636719 60.929688 249.796875 54.355469 242.058594 C 47.78125 234.316406 41.980469 225.800781 37.34375 216.382812 C 32.703125 207.09375 28.964844 197.160156 26.515625 186.710938 C 24.195312 176.261719 23.035156 165.554688 23.164062 154.585938 L 23.164062 152.523438 L 23.292969 150.457031 L 23.550781 146.332031 C 23.808594 143.621094 24.066406 140.910156 24.453125 138.203125 C 25.355469 132.785156 26.257812 127.367188 27.804688 122.078125 L 28.835938 118.207031 L 30.125 114.335938 C 30.898438 111.753906 31.929688 109.304688 32.960938 106.851562 C 26.386719 120.785156 22.132812 136.265625 20.714844 152.652344 C 21.101562 154.328125 21.230469 157.039062 21.230469 160.265625 C 21.488281 168.003906 22.390625 175.617188 23.808594 183.097656 C 23.808594 182.710938 23.9375 182.582031 24.066406 182.453125 C 24.582031 182.453125 25.484375 185.164062 26.128906 188.386719 C 30.125 207.09375 38.117188 224.769531 49.328125 240.25 C 49.585938 240.636719 49.84375 241.027344 50.101562 241.285156 C 64.539062 259.992188 83.746094 274.957031 105.269531 283.988281 C 126.796875 293.277344 150.515625 296.628906 173.585938 294.050781 C 175.003906 293.921875 176.421875 293.664062 177.839844 293.535156 C 179.257812 293.277344 180.675781 293.148438 182.09375 292.886719 L 186.347656 291.984375 L 188.539062 291.597656 L 190.601562 291.082031 L 194.855469 290.050781 L 198.980469 288.761719 C 201.816406 287.984375 204.394531 286.824219 207.230469 285.921875 C 212.644531 283.730469 217.929688 281.535156 222.953125 278.695312 C 225.53125 277.40625 227.980469 275.859375 230.429688 274.441406 C 231.71875 273.664062 232.878906 272.890625 234.039062 272.117188 C 235.199219 271.34375 236.488281 270.570312 237.648438 269.667969 C 256.46875 256.25 271.550781 237.929688 281.34375 217.160156 C 281.730469 215.867188 282.503906 214.191406 283.148438 213.417969 C 283.792969 212.515625 284.050781 212.773438 283.664062 214.0625 C 283.921875 214.0625 284.308594 213.933594 284.179688 214.320312 C 278.253906 230.445312 269.359375 245.28125 257.628906 258.3125 C 245.769531 271.214844 230.945312 282.179688 213.160156 289.664062 C 200.914062 294.824219 188.023438 298.179688 174.875 299.726562 C 188.539062 298.953125 201.558594 296.5 213.160156 293.277344 C 229.398438 286.695312 244.480469 277.019531 257.242188 265.152344 C 270.003906 253.28125 280.699219 239.476562 288.949219 224.640625 L 288.046875 225.671875 C 288.691406 224.382812 289.464844 223.09375 290.109375 222.191406 C 290.753906 221.285156 291.140625 220.640625 291.398438 220.769531 C 291.65625 220.769531 291.65625 221.285156 291.398438 222.320312 C 291.140625 223.222656 290.625 224.511719 289.851562 225.929688 C 286.5 233.15625 282.503906 240.25 277.867188 246.960938 C 273.226562 253.667969 267.941406 259.863281 262.269531 265.796875 C 256.46875 271.601562 250.28125 277.019531 243.578125 281.792969 C 236.875 286.566406 229.65625 290.824219 222.179688 294.4375 C 192.148438 309.015625 156.703125 312.5 123.703125 304.371094 C 107.203125 300.242188 91.351562 293.277344 77.171875 283.730469 C 62.992188 274.183594 50.359375 262.183594 40.050781 248.378906 C 29.738281 234.574219 21.875 218.835938 16.847656 202.320312 C 11.691406 185.808594 9.757812 168.261719 10.402344 150.847656 C 11.5625 123.238281 20.84375 96.144531 36.441406 73.566406 C 51.90625 50.863281 73.820312 32.800781 98.957031 21.574219 C 102.691406 19.769531 106.300781 18.867188 108.878906 18.222656 C 111.457031 17.707031 113.261719 17.707031 113.390625 18.351562 C 113.519531 19.511719 107.589844 22.480469 100.371094 25.832031 C 76.398438 36.671875 55.773438 54.214844 41.078125 75.761719 C 26.257812 97.304688 17.363281 122.722656 15.816406 148.910156 C 15.171875 160.394531 15.558594 172.003906 17.621094 183.226562 C 19.554688 194.453125 22.90625 205.546875 27.289062 215.996094 C 20.585938 199.484375 17.363281 181.808594 17.363281 164.261719 C 16.976562 157.554688 17.234375 150.847656 17.878906 144.136719 C 18.523438 137.429688 19.8125 130.71875 21.359375 124.011719 C 23.164062 117.433594 25.226562 110.851562 27.933594 104.53125 C 30.640625 98.207031 33.734375 92.015625 37.34375 86.082031 C 45.976562 71.632812 56.933594 59.246094 69.4375 49.183594 C 81.941406 39.121094 95.992188 31.121094 111.070312 25.703125 C 126.023438 20.285156 141.878906 17.1875 158.121094 16.671875 C 166.238281 16.414062 174.359375 16.800781 182.480469 17.835938 C 190.601562 18.867188 198.851562 20.671875 206.84375 22.996094 C 222.566406 27.640625 236.488281 34.476562 248.992188 42.476562 C 255.179688 46.605469 260.980469 50.992188 266.523438 55.765625 C 271.9375 60.539062 277.09375 65.699219 281.730469 71.117188 C 286.5 76.535156 290.753906 82.339844 294.621094 88.402344 C 298.488281 94.46875 301.96875 101.046875 305.0625 107.753906 C 308.027344 114.59375 310.605469 121.6875 312.539062 129.171875 C 314.472656 136.65625 315.890625 144.394531 316.664062 152.523438 C 316.921875 155.363281 316.792969 158.585938 316.40625 159.617188 C 316.277344 160.136719 316.019531 160.136719 315.761719 159.617188 C 315.503906 159.101562 315.375 158.070312 315.246094 156.652344 C 312.667969 125.558594 300.679688 97.433594 282.246094 74.859375 C 277.738281 69.179688 272.582031 63.890625 267.167969 58.988281 C 264.460938 56.410156 261.625 54.214844 258.789062 51.765625 C 257.371094 50.601562 255.824219 49.570312 254.40625 48.410156 C 252.988281 47.25 251.3125 46.347656 249.894531 45.183594 C 243.707031 41.054688 237.261719 37.1875 230.429688 33.960938 C 223.597656 30.734375 216.382812 27.898438 209.035156 25.703125 C 193.179688 20.929688 176.9375 18.867188 160.824219 19.125 C 144.714844 19.511719 128.859375 22.351562 113.777344 27.769531 C 98.699219 33.1875 84.519531 41.054688 71.886719 51.25 C 59.253906 61.441406 48.296875 73.824219 39.664062 88.015625 C 37.34375 91.886719 35.152344 95.757812 33.21875 99.757812 C 36.699219 93.304688 40.566406 87.113281 44.945312 81.4375 C 49.328125 75.761719 54.097656 70.472656 59.125 65.570312 C 78.203125 45.699219 102.820312 31.898438 129.246094 25.960938 C 155.671875 20.027344 183.640625 21.832031 209.292969 31.378906 C 219.21875 35.121094 228.753906 39.765625 237.519531 45.441406 C 246.414062 51.121094 254.535156 57.828125 261.882812 65.183594 C 263.816406 66.988281 265.492188 69.050781 267.296875 70.988281 C 269.101562 72.921875 270.648438 74.988281 272.324219 77.050781 C 275.546875 81.179688 278.640625 85.566406 281.34375 90.082031 C 286.757812 99.113281 291.269531 108.789062 294.492188 119.109375 C 295.265625 121.6875 296.039062 124.269531 296.167969 126.332031 C 296.425781 128.398438 296.425781 129.945312 296.039062 130.589844 C 295.78125 131.105469 295.136719 130.589844 294.492188 129.300781 C 293.976562 128.011719 293.203125 125.945312 292.429688 123.367188 Z M 103.722656 290.824219 C 94.574219 287.339844 85.808594 282.824219 77.558594 277.40625 C 93.414062 288.503906 111.585938 296.371094 130.535156 300.371094 C 149.484375 304.371094 169.332031 304.5 188.410156 300.628906 C 174.359375 302.824219 159.796875 303.210938 145.359375 301.660156 C 131.050781 299.984375 116.871094 296.371094 103.722656 290.824219 Z M 103.722656 290.824219 " fill-opacity="1" fill-rule="nonzero"/><g clip-path="url(#941290779e)"><path fill="#ffffff" d="M 147.292969 312.628906 C 135.691406 311.335938 124.21875 308.628906 113.132812 305.015625 C 102.046875 301.402344 91.480469 296.886719 81.683594 291.984375 C 80.78125 291.46875 80.136719 291.339844 80.523438 291.726562 C 80.910156 292.242188 81.941406 292.886719 82.972656 293.40625 C 92.382812 298.050781 102.691406 302.433594 113.390625 305.789062 C 124.089844 309.273438 135.433594 311.851562 146.519531 313.144531 C 147.808594 313.273438 148.96875 313.273438 149.097656 313.015625 C 149.355469 313.015625 148.453125 312.757812 147.292969 312.628906 Z M 147.292969 312.628906 " fill-opacity="1" fill-rule="nonzero"/></g><path fill="#ffffff" d="M 68.019531 284.375 C 52.9375 274.3125 39.277344 261.152344 28.449219 245.539062 C 17.75 229.929688 9.628906 211.867188 5.375 192.773438 C 1.121094 173.679688 0.476562 153.554688 3.699219 133.816406 C 6.921875 114.078125 14.140625 94.855469 24.710938 77.824219 C 41.851562 49.957031 67.117188 28.671875 95.863281 15.898438 C 97.667969 15.125 99.472656 14.222656 101.273438 13.578125 L 106.816406 11.511719 C 110.554688 10.222656 114.292969 8.933594 118.03125 8.03125 C 121.769531 6.867188 125.636719 6.09375 129.503906 5.320312 C 133.371094 4.675781 137.238281 3.902344 141.234375 3.515625 C 145.101562 2.996094 149.097656 2.738281 153.09375 2.480469 C 155.027344 2.351562 157.089844 2.351562 159.023438 2.351562 C 160.953125 2.222656 163.015625 2.351562 164.949219 2.351562 C 166.882812 2.480469 168.945312 2.351562 170.878906 2.480469 C 172.8125 2.609375 174.875 2.738281 176.808594 2.867188 C 178.742188 2.996094 180.804688 3.253906 182.738281 3.515625 C 183.769531 3.644531 184.671875 3.773438 185.703125 3.902344 L 188.667969 4.417969 C 199.109375 6.09375 209.421875 8.804688 219.089844 12.285156 C 228.882812 15.769531 238.035156 20.027344 246.671875 24.800781 C 248.089844 25.574219 249.121094 25.960938 248.734375 25.445312 C 248.21875 24.800781 246.800781 23.769531 245.125 22.867188 C 227.078125 12.804688 207.230469 5.964844 186.605469 2.867188 C 165.980469 -0.226562 144.84375 0.546875 124.21875 5.191406 C 103.722656 9.835938 84.003906 18.609375 66.730469 30.992188 C 49.714844 42.992188 34.894531 58.730469 23.9375 76.921875 C 13.367188 94.210938 6.148438 113.5625 3.054688 133.558594 C -0.167969 153.554688 0.476562 173.9375 4.859375 193.421875 C 9.242188 212.902344 17.492188 231.21875 28.707031 246.960938 C 39.792969 262.699219 53.839844 275.988281 69.308594 286.050781 C 70.082031 286.566406 70.726562 286.695312 70.46875 286.308594 C 69.953125 285.792969 68.792969 284.890625 68.019531 284.375 Z M 68.019531 284.375 " fill-opacity="1" fill-rule="nonzero"/><path fill="#ffffff" d="M 124.863281 6.609375 C 113.90625 9.320312 103.207031 13.320312 93.027344 18.351562 C 82.972656 23.382812 73.304688 29.445312 64.539062 36.542969 C 55.644531 43.507812 47.394531 51.507812 40.179688 60.148438 C 32.832031 68.921875 26.386719 78.46875 20.84375 88.660156 C 14.785156 99.628906 10.402344 111.367188 7.566406 123.496094 C 4.730469 135.621094 3.3125 148.265625 3.957031 161.296875 C 4.214844 169.941406 5.503906 178.195312 7.179688 186.324219 C 8.855469 194.324219 11.175781 202.0625 13.882812 209.546875 C 15.171875 213.289062 16.847656 217.027344 18.394531 220.640625 C 19.296875 222.449219 20.070312 224.253906 20.972656 226.058594 C 21.875 227.867188 22.777344 229.671875 23.808594 231.480469 C 27.675781 238.574219 31.929688 245.539062 36.957031 252.378906 C 37.601562 253.28125 38.375 254.054688 38.761719 254.183594 C 38.890625 254.054688 38.503906 253.410156 37.859375 252.507812 C 27.289062 237.671875 19.039062 221.800781 13.367188 205.03125 C 7.824219 188.257812 4.988281 170.457031 5.375 152.007812 C 5.632812 143.492188 6.664062 134.976562 8.339844 126.589844 C 10.015625 118.464844 12.464844 110.335938 15.558594 102.464844 C 21.746094 86.726562 30.640625 72.277344 41.335938 59.503906 C 63.121094 34.089844 92.511719 15.769531 125.25 7.253906 C 126.667969 6.867188 127.441406 6.609375 127.441406 6.351562 C 127.3125 6.222656 126.152344 6.351562 124.863281 6.609375 Z M 124.863281 6.609375 " fill-opacity="1" fill-rule="nonzero"/><path fill="#ffffff" d="M 30.769531 147.105469 C 29.609375 157.8125 29.738281 168.90625 31.414062 179.746094 C 33.089844 190.582031 36.183594 201.289062 40.695312 211.222656 C 45.203125 221.15625 51.003906 230.1875 57.578125 238.058594 C 64.28125 245.929688 71.757812 252.507812 79.363281 257.796875 C 80.136719 258.3125 80.394531 258.3125 80.007812 257.667969 C 79.621094 257.152344 78.589844 256.25 77.945312 255.734375 C 70.46875 250.445312 63.25 243.863281 57.0625 235.992188 C 50.875 228.125 45.332031 219.222656 41.207031 209.546875 C 37.085938 199.871094 34.121094 189.550781 32.574219 179.101562 C 31.15625 168.648438 30.898438 157.941406 31.929688 147.621094 C 32.058594 145.683594 32.1875 143.878906 31.800781 143.621094 C 31.542969 143.621094 31.027344 145.039062 30.769531 147.105469 Z M 30.769531 147.105469 " fill-opacity="1" fill-rule="nonzero"/><path fill="#ffffff" d="M 158.894531 309.53125 C 147.292969 309.402344 135.691406 307.855469 124.347656 305.015625 C 113.132812 302.175781 102.175781 297.921875 91.867188 292.628906 C 81.554688 287.339844 72.015625 280.761719 63.121094 273.40625 C 54.355469 266.054688 46.363281 257.667969 39.277344 248.636719 C 26.515625 230.703125 17.621094 210.320312 13.109375 188.90625 C 12.59375 185.808594 11.691406 183.355469 11.304688 183.484375 C 10.789062 183.484375 10.917969 186.195312 11.433594 189.292969 C 13.496094 200.257812 16.847656 210.964844 21.230469 221.15625 C 20.972656 220.898438 20.714844 220.898438 20.714844 221.027344 C 4.730469 185.164062 3.3125 142.976562 16.976562 105.820312 C 17.75 103.757812 18.136719 102.207031 17.878906 102.078125 C 17.621094 101.949219 16.71875 103.5 15.945312 105.5625 C 8.726562 124.914062 5.632812 145.816406 6.664062 166.328125 C 7.695312 186.839844 12.980469 207.09375 22.003906 225.414062 C 22.519531 226.835938 23.292969 228.382812 24.195312 230.058594 C 28.191406 237.671875 32.832031 244.894531 38.117188 251.605469 C 43.269531 258.3125 49.070312 264.503906 55.257812 270.3125 C 67.632812 281.792969 81.941406 291.210938 97.667969 298.179688 C 108.878906 303.082031 120.480469 306.820312 132.210938 309.144531 C 144.070312 311.464844 155.929688 312.371094 167.914062 312.113281 C 179.902344 311.851562 191.761719 310.046875 203.234375 306.820312 C 214.835938 303.597656 226.046875 299.082031 236.488281 293.148438 C 253.117188 283.730469 267.296875 270.699219 279.285156 255.734375 C 284.308594 249.539062 289.078125 242.703125 293.074219 235.863281 C 295.136719 232.382812 296.8125 228.898438 298.488281 225.414062 C 300.035156 221.800781 301.453125 218.320312 302.613281 214.835938 C 308.800781 195.484375 309.832031 177.164062 308.027344 160.136719 C 307.898438 159.101562 307.769531 158.972656 307.640625 159.746094 C 307.511719 160.394531 307.382812 161.8125 307.511719 162.585938 C 308.285156 171.101562 308.285156 180.132812 307.125 189.292969 C 306.09375 198.324219 304.160156 207.480469 301.710938 215.996094 C 295.265625 232.125 286.113281 247.089844 274.902344 260.121094 C 263.558594 273.148438 250.28125 284.246094 235.457031 293.148438 C 229.527344 296.242188 223.339844 298.953125 217.15625 301.015625 C 210.96875 303.210938 204.652344 304.757812 198.335938 306.175781 C 185.445312 308.5 172.425781 309.789062 158.894531 309.53125 Z M 158.894531 309.53125 " fill-opacity="1" fill-rule="nonzero"/></g></g></g></g><g fill="#ffffff" fill-opacity="1"><g transform="translate(69.099406, 229.827347)"><g><path d="M 99.300781 0 L 119.3125 0 C 117.808594 -19.902344 117.808594 -59.496094 118.992188 -80.152344 C 111.996094 -79.183594 98.335938 -79.183594 91.339844 -80.152344 C 82.84375 -58.527344 73.914062 -37.65625 63.90625 -16.890625 C 54.222656 -37.546875 45.507812 -58.636719 37.441406 -80.152344 C 30.664062 -79.183594 16.460938 -79.183594 9.253906 -80.152344 C 10.542969 -60.035156 10.542969 -20.117188 9.253906 0 L 28.726562 0 C 27.863281 -14.417969 27.542969 -41.742188 27.648438 -62.722656 C 37.546875 -42.066406 46.800781 -21.195312 55.191406 0.214844 L 72.296875 0.214844 C 80.90625 -21.085938 90.15625 -42.28125 100.164062 -63.152344 C 100.484375 -38.839844 100.164062 -13.984375 99.300781 0 Z M 99.300781 0 "/></g></g></g><g fill="#ffffff" fill-opacity="1"><g transform="translate(196.803203, 229.827347)"><g><path d="M 58.636719 1.183594 C 87.789062 1.183594 102.421875 -6.457031 102.421875 -22.378906 C 102.421875 -39.699219 84.242188 -43.464844 56.589844 -45.617188 C 34.644531 -47.339844 26.035156 -49.597656 26.035156 -58.203125 C 26.035156 -65.414062 33.027344 -68.746094 49.597656 -68.746094 C 69.179688 -68.746094 85.746094 -63.476562 98.226562 -58.3125 C 97.367188 -63.800781 97.367188 -69.285156 98.226562 -75.09375 C 83.058594 -78.753906 70.792969 -81.550781 50.242188 -81.550781 C 20.980469 -81.550781 6.671875 -73.695312 6.671875 -57.667969 C 6.671875 -41.421875 22.59375 -37.226562 48.953125 -34.859375 C 72.945312 -32.8125 83.058594 -31.738281 83.058594 -22.269531 C 83.058594 -15.167969 76.386719 -11.621094 60.355469 -11.621094 C 40.667969 -11.621094 17.644531 -16.246094 7.53125 -25.929688 C 8.390625 -19.902344 8.390625 -13.984375 7.53125 -7.960938 C 21.085938 -2.90625 38.945312 1.183594 58.636719 1.183594 Z M 58.636719 1.183594 "/></g></g></g></svg>